<?xml version="1.0" encoding="UTF-8" standalone="no"?>
<!-- Created with Inkscape (http://www.inkscape.org/) -->

<svg
   xmlns:dc="http://purl.org/dc/elements/1.1/"
   xmlns:cc="http://creativecommons.org/ns#"
   xmlns:rdf="http://www.w3.org/1999/02/22-rdf-syntax-ns#"
   xmlns:svg="http://www.w3.org/2000/svg"
   xmlns="http://www.w3.org/2000/svg"
   xmlns:sodipodi="http://sodipodi.sourceforge.net/DTD/sodipodi-0.dtd"
   xmlns:inkscape="http://www.inkscape.org/namespaces/inkscape"
   width="512"
   height="512"
   viewBox="0 0 135.46666 135.46666"
   version="1.1"
   id="svg8"
   inkscape:export-filename="/home/dmpop/favicon.png"
   inkscape:export-xdpi="96.000008"
   inkscape:export-ydpi="96.000008"
   inkscape:version="0.92.5 (2060ec1f9f, 2020-04-08)"
   sodipodi:docname="favicon.svg">
  <defs
     id="defs2">
    <inkscape:perspective
       sodipodi:type="inkscape:persp3d"
       inkscape:vp_x="0 : 65.0119 : 1"
       inkscape:vp_y="0 : 1000 : 0"
       inkscape:vp_z="103.56547 : -49.136904 : 1"
       inkscape:persp3d-origin="65.0119 : 43.341267 : 1"
       id="perspective9439" />
    <symbol
       id="Coffeeshop_Inv">
      <title
         id="title1729">Coffeeshop</title>
      <rect
         x="0.13229166"
         y="0.13229166"
         width="18.785418"
         height="18.785418"
         ry="1.5875"
         style="stroke:#ffffff;stroke-width:0.26458332"
         id="rect1731" />
      <g
         style="fill:#ffffff;fill-rule:evenodd;stroke:none"
         id="g1737">
        <path
           style="stroke-width:0.26458332"
           inkscape:connector-curvature="0"
           d="m 5.2916667,11.90625 a 1.3229167,1.3229167 0 0 0 1.3229166,1.322917 h 5.8208337 a 1.3229167,1.3229167 0 0 0 1.322916,-1.322917 v -0.264583 h 0.264584 a 2.6458335,2.6458335 0 0 0 0,-5.291667 H 5.2916667 Z M 13.758333,7.4083333 v 3.1749997 h 0.264584 a 1.5875,1.5875 0 0 0 0,-3.1749997 z"
           id="path1733" />
        <path
           style="stroke-width:0.26458332"
           inkscape:connector-curvature="0"
           d="m 2.1166667,13.758333 a 1.5875,1.5875 0 0 0 1.5875,1.5875 H 15.345833 a 1.5875,1.5875 0 0 0 1.5875,-1.5875 z"
           id="path1735" />
      </g>
    </symbol>
    <symbol
       id="Coffeeshop">
      <title
         id="title1720">Coffeeshop</title>
      <g
         style="fill-rule:evenodd;stroke:none"
         id="g1726">
        <path
           style="stroke-width:0.26458332"
           inkscape:connector-curvature="0"
           d="m 5.2916667,11.90625 a 1.3229167,1.3229167 0 0 0 1.3229166,1.322917 h 5.8208337 a 1.3229167,1.3229167 0 0 0 1.322916,-1.322917 v -0.264583 h 0.264584 a 2.6458335,2.6458335 0 0 0 0,-5.291667 H 5.2916667 Z M 13.758333,7.4083333 v 3.1749997 h 0.264584 a 1.5875,1.5875 0 0 0 0,-3.1749997 z"
           id="path1722" />
        <path
           style="stroke-width:0.26458332"
           inkscape:connector-curvature="0"
           d="m 2.1166667,13.758333 a 1.5875,1.5875 0 0 0 1.5875,1.5875 H 15.345833 a 1.5875,1.5875 0 0 0 1.5875,-1.5875 z"
           id="path1724" />
      </g>
    </symbol>
  </defs>
  <sodipodi:namedview
     id="base"
     pagecolor="#ffffff"
     bordercolor="#666666"
     borderopacity="1.0"
     inkscape:pageopacity="0.0"
     inkscape:pageshadow="2"
     inkscape:zoom="0.35"
     inkscape:cx="219.15959"
     inkscape:cy="123.85365"
     inkscape:document-units="mm"
     inkscape:current-layer="layer1"
     showgrid="false"
     fit-margin-top="0"
     fit-margin-left="0"
     fit-margin-right="0"
     fit-margin-bottom="0"
     inkscape:window-width="2560"
     inkscape:window-height="1377"
     inkscape:window-x="0"
     inkscape:window-y="0"
     inkscape:window-maximized="1"
     units="px" />
  <metadata
     id="metadata5">
    <rdf:RDF>
      <cc:Work
         rdf:about="">
        <dc:format>image/svg+xml</dc:format>
        <dc:type
           rdf:resource="http://purl.org/dc/dcmitype/StillImage" />
        <dc:title />
      </cc:Work>
    </rdf:RDF>
  </metadata>
  <g
     inkscape:label="Layer 1"
     inkscape:groupmode="layer"
     id="layer1"
     transform="translate(1112.1616,-46.136296)">
    <path
       style="fill:#aa4400;fill-opacity:1;stroke:none;stroke-width:0.26919815;stroke-opacity:1"
       d="m -1044.5574,113.86963 c 0,36.53136 44.1568,66.14585 7.6254,66.14583 -36.5313,0 -66.1458,-29.6145 -66.1458,-66.14583 0,-36.531333 29.6145,-66.145833 66.1458,-66.145834 36.5314,-2.2e-5 -7.6254,29.614485 -7.6254,66.145834 z"
       id="path814"
       inkscape:connector-curvature="0"
       sodipodi:nodetypes="sssss" />
    <circle
       style="fill:#ff7f2a;fill-opacity:1;stroke:none;stroke-width:6.10465145;stroke-miterlimit:4;stroke-dasharray:none;stroke-opacity:1"
       id="path9390"
       cx="-1035.9752"
       cy="113.86963"
       r="50.196438" />
    <circle
       style="fill:#ffe680;fill-opacity:1;stroke:none;stroke-width:11.04191494;stroke-miterlimit:4;stroke-dasharray:none;stroke-opacity:1"
       id="path9455"
       cx="-1035.9752"
       cy="113.86963"
       r="29.910662" />
  </g>
</svg>
